<?xml version="1.0" standalone="no"?>
<!DOCTYPE svg PUBLIC "-//W3C//DTD SVG 20010904//EN"
 "http://www.w3.org/TR/2001/REC-SVG-20010904/DTD/svg10.dtd">
<svg version="1.0" xmlns="http://www.w3.org/2000/svg"
 width="1024.000000pt" height="1024.000000pt" viewBox="0 0 1024.000000 1024.000000"
 preserveAspectRatio="xMidYMid meet">

<g transform="translate(0.000000,1024.000000) scale(0.100000,-0.100000)"
fill="#000000" stroke="none">
<path d="M0 5120 l0 -5120 5120 0 5120 0 0 5120 0 5120 -5120 0 -5120 0 0
-5120z m5245 4066 c169 -78 219 -306 99 -452 -20 -25 -56 -53 -84 -66 l-50
-23 0 -665 0 -665 205 0 205 0 0 297 c0 184 4 307 11 324 5 16 62 80 125 144
l114 116 0 245 c0 245 0 246 23 268 l24 22 944 -3 c1047 -4 971 1 1139 -71
103 -45 180 -98 276 -190 140 -133 227 -289 265 -470 17 -86 19 -145 19 -870
0 -655 -2 -782 -14 -805 -8 -15 -142 -154 -298 -309 l-284 -283 -299 0 -300 0
3 -195 3 -195 617 0 618 0 12 34 c20 54 96 132 160 163 151 74 336 3 411 -156
34 -74 36 -183 4 -252 -29 -63 -87 -125 -147 -157 -44 -23 -63 -27 -141 -27
-81 0 -95 3 -144 30 -61 33 -125 101 -143 151 l-12 34 -618 0 -618 0 0 -187 0
-188 267 3 c148 2 284 0 303 -3 29 -6 80 -52 299 -268 145 -144 276 -280 292
-301 l29 -39 0 -742 c0 -613 -3 -757 -15 -828 -62 -358 -325 -653 -680 -764
l-90 -28 -926 -3 -926 -3 -26 21 -27 21 0 237 0 237 -111 110 c-61 61 -117
122 -125 137 -11 22 -14 86 -14 323 l0 295 -205 0 -205 0 0 -543 0 -543 35
-17 c180 -86 225 -327 87 -470 -54 -56 -105 -79 -188 -85 -101 -6 -163 16
-229 82 -81 81 -107 198 -69 309 20 59 90 138 143 162 l41 18 0 461 c0 254 3
498 7 544 l6 82 -207 0 -206 0 0 -305 0 -305 -115 -123 -115 -122 0 -236 c0
-222 -1 -236 -20 -257 -11 -12 -31 -24 -43 -27 -12 -3 -436 -4 -942 -3 l-920
3 -90 28 c-343 106 -568 328 -672 662 l-28 90 -3 792 -3 792 60 68 c32 37 165
174 295 303 l236 235 305 3 305 3 0 184 0 185 -618 0 -619 0 -23 -51 c-29 -61
-84 -113 -157 -146 -48 -22 -65 -25 -132 -21 -123 7 -207 62 -261 170 -26 52
-30 72 -30 137 0 89 25 154 85 220 84 93 239 124 350 71 65 -32 126 -94 151
-153 l19 -47 618 0 617 0 0 195 0 195 -297 0 c-267 0 -301 2 -323 18 -53 36
-569 569 -575 592 -3 14 -4 383 -2 820 3 766 4 798 23 865 103 352 350 594
693 681 l94 24 929 0 929 0 24 -25 25 -24 0 -248 0 -249 76 -74 c42 -41 94
-97 115 -123 l39 -49 0 -314 0 -315 200 3 200 3 0 665 0 665 -45 24 c-52 28
-95 73 -127 134 -34 64 -32 173 4 247 53 108 136 159 258 160 58 0 86 -6 125
-24z"/>
<path d="M5075 9036 c-50 -22 -72 -68 -67 -143 3 -30 54 -79 92 -87 36 -7 86
12 114 42 48 54 21 158 -49 188 -42 17 -51 17 -90 0z"/>
<path d="M2515 8550 c-194 -28 -393 -146 -505 -298 -57 -77 -98 -158 -131
-257 l-24 -70 -3 -765 -3 -764 243 -243 243 -243 272 0 273 0 0 503 c0 302 5
519 11 546 29 127 135 256 256 314 64 30 76 32 213 37 l145 5 3 155 3 154 -93
93 -93 93 -275 -1 -275 0 -30 -47 c-45 -70 -99 -103 -178 -109 -58 -5 -73 -2
-122 21 -147 72 -186 257 -79 376 49 54 107 80 180 80 92 -1 171 -47 210 -122
l15 -28 311 0 311 0 128 -127 c71 -69 135 -141 144 -159 12 -25 15 -71 15
-210 l0 -177 122 6 c66 4 242 7 390 7 l268 0 0 283 0 283 -76 74 c-42 41 -94
97 -115 123 l-39 49 0 214 0 214 -832 -1 c-458 -1 -856 -5 -883 -9z"/>
<path d="M6040 8355 c0 -159 -3 -212 -14 -233 -8 -15 -62 -74 -120 -132 l-106
-105 0 -285 0 -285 380 0 380 0 0 173 c0 125 4 182 14 205 7 18 72 89 143 160
l130 127 306 0 306 0 12 23 c6 12 30 41 53 65 97 101 262 87 355 -32 101 -128
36 -323 -126 -377 -92 -30 -212 16 -268 103 l-30 47 -270 0 -270 1 -93 -93
-93 -93 3 -154 3 -155 150 -5 c143 -5 153 -7 218 -37 127 -60 232 -196 257
-332 6 -31 10 -258 10 -545 l0 -491 267 3 268 3 243 242 243 242 -3 770 -3
770 -24 70 c-46 139 -98 222 -201 325 -52 52 -120 110 -152 128 -73 43 -177
79 -264 92 -41 6 -397 10 -886 10 l-818 0 0 -205z"/>
<path d="M2485 7955 c-54 -53 -18 -155 55 -155 44 0 90 47 90 93 0 77 -92 116
-145 62z"/>
<path d="M7642 7973 c-18 -7 -42 -57 -42 -88 0 -38 50 -85 90 -85 46 0 80 38
80 90 0 53 -34 90 -82 89 -18 0 -39 -3 -46 -6z"/>
<path d="M3249 7126 c-61 -21 -108 -56 -137 -99 -61 -90 -57 38 -57 -1777 l0
-1665 24 -53 c14 -30 43 -69 68 -92 87 -76 -76 -71 1993 -68 l1855 3 51 27
c29 15 66 44 83 65 65 79 61 -42 61 1792 0 1653 -1 1666 -21 1711 -25 55 -80
114 -134 143 l-40 22 -1855 2 c-1500 2 -1862 0 -1891 -11z m1805 -968 c366
-1091 716 -2133 716 -2135 0 -2 -111 -3 -247 -3 l-248 0 -39 128 c-22 70 -61
196 -88 279 l-49 153 -434 2 -435 3 -50 -155 c-27 -85 -66 -212 -87 -282 l-38
-128 -242 0 c-134 0 -243 2 -243 3 0 4 814 2447 825 2475 3 9 67 12 272 12
l268 0 119 -352z m1431 -893 l0 -1240 -227 -3 -228 -2 0 1245 0 1245 228 -2
227 -3 0 -1240z"/>
<path d="M4648 5963 c-3 -10 -69 -226 -147 -480 -77 -255 -141 -467 -141 -473
0 -7 101 -9 303 -8 194 2 301 7 300 13 -1 6 -36 118 -78 250 -42 132 -110 345
-151 474 -40 128 -75 235 -77 238 -3 2 -7 -4 -9 -14z"/>
<path d="M1281 5378 c-52 -35 -74 -71 -74 -120 0 -84 59 -148 136 -148 105 0
170 96 132 195 -31 84 -127 119 -194 73z"/>
<path d="M8855 5386 c-17 -7 -43 -27 -57 -44 -79 -94 -14 -232 109 -232 78 0
137 60 137 139 0 108 -96 178 -189 137z"/>
<path d="M2097 4372 l-248 -248 3 -744 c4 -832 0 -785 77 -945 105 -220 292
-371 531 -431 44 -11 222 -13 913 -14 l857 0 0 199 0 199 39 49 c21 26 73 82
115 123 l76 74 0 278 0 278 -350 2 c-192 1 -367 2 -387 3 l-38 0 -5 -180 c-3
-112 -9 -188 -17 -200 -22 -38 -248 -254 -276 -264 -17 -7 -141 -11 -321 -11
l-292 0 -31 -44 c-109 -154 -339 -133 -419 39 -74 158 44 339 221 339 41 -1
73 -7 101 -22 44 -23 108 -88 119 -121 6 -21 8 -21 288 -15 l282 6 88 86 87
87 0 147 0 148 -113 0 c-179 0 -286 38 -383 134 -56 57 -99 132 -120 211 -11
39 -14 167 -14 568 l0 517 -268 0 -267 0 -248 -248z"/>
<path d="M7370 4133 c0 -269 -5 -519 -10 -556 -14 -93 -51 -166 -122 -243
-102 -109 -200 -144 -399 -144 l-109 0 0 -148 0 -147 88 -88 87 -87 277 0
c271 0 277 0 283 21 12 37 69 92 120 115 117 55 257 6 316 -109 82 -158 -34
-349 -210 -348 -33 0 -75 6 -94 15 -42 17 -114 80 -122 107 -6 18 -19 19 -305
19 -164 0 -309 4 -322 9 -26 10 -255 238 -275 274 -8 15 -12 77 -13 197 l0
175 -380 0 -380 0 0 -280 0 -279 120 -121 120 -122 0 -207 0 -207 853 3 852 3
99 34 c222 77 395 239 484 453 60 143 62 177 62 952 l0 702 -248 247 -248 247
-262 0 -262 0 0 -487z"/>
<path d="M7626 2704 c-57 -57 -20 -154 59 -154 51 0 85 36 85 90 0 82 -87 121
-144 64z"/>
<path d="M2479 2694 c-35 -37 -33 -98 4 -130 39 -33 81 -31 118 5 60 60 24
151 -59 151 -28 0 -45 -7 -63 -26z"/>
<path d="M5052 1924 c-49 -34 -66 -109 -37 -164 19 -38 63 -60 116 -60 33 0
47 6 75 34 30 30 34 40 34 86 0 46 -4 56 -34 86 -29 29 -41 34 -83 34 -28 0
-58 -7 -71 -16z"/>
</g>
</svg>
